<svg width="65" height="64" viewBox="0 0 65 64" fill="none" xmlns="http://www.w3.org/2000/svg">
<rect x="0.5" width="64" height="64" rx="18" fill="#6842FF"/>
<rect x="0.5" width="64" height="64" rx="18" fill="black" fill-opacity="0.2"/>
<path fill-rule="evenodd" clip-rule="evenodd" d="M18.9504 49.73L14.77 45.5497C13.6635 44.4431 12.9802 43.7561 12.5077 43.1995C12.0664 42.6797 12.0071 42.4959 12.0002 42.4744L12 42.4736C11.8704 42.075 11.8704 41.6455 12 41.2469L12.0002 41.2461C12.0071 41.2246 12.0664 41.0408 12.5077 40.521C12.9802 39.9644 13.6635 39.2774 14.77 38.1709L16.5548 36.386C17.2479 35.693 17.5944 35.3465 17.9939 35.2167C18.3454 35.1025 18.724 35.1025 19.0755 35.2167C19.4751 35.3465 19.8216 35.693 20.5146 36.386L28.114 43.9854C28.807 44.6784 29.1535 45.025 29.2833 45.4245C29.3976 45.776 29.3976 46.1546 29.2833 46.5061C29.1535 46.9057 28.807 47.2522 28.114 47.9452L26.3292 49.73C25.2226 50.8365 24.5356 51.5199 23.979 51.9924C23.4592 52.4336 23.2754 52.4929 23.2539 52.4998L23.2532 52.5001C22.8545 52.6296 22.425 52.6296 22.0264 52.5001L22.0257 52.4998C22.0041 52.4929 21.8203 52.4336 21.3006 51.9924C20.7439 51.5199 20.0569 50.8365 18.9504 49.73ZM34.4799 50.3513C33.7869 49.6583 33.4404 49.3118 33.0408 49.182C32.6893 49.0678 32.3107 49.0678 31.9592 49.182C31.5596 49.3118 31.2131 49.6583 30.5201 50.3513L28.7353 52.1361C26.6017 54.2698 25.5348 55.3366 24.3047 55.7363C23.2226 56.0879 22.057 56.0879 20.9749 55.7363C19.7447 55.3366 18.6779 54.2698 16.5442 52.1361L12.3639 47.9558C10.2302 45.8222 9.16343 44.7553 8.76372 43.5252C8.41213 42.4431 8.41213 41.2774 8.76372 40.1954C9.16343 38.9652 10.2302 37.8984 12.3639 35.7647L14.1487 33.9799C14.8417 33.2869 15.1882 32.9404 15.3181 32.5408C15.4323 32.1893 15.4323 31.8107 15.3181 31.4592C15.1882 31.0597 14.8417 30.7131 14.1487 30.0201L12.3639 28.2353C10.2302 26.1016 9.1634 25.0348 8.76369 23.8046C8.4121 22.7226 8.4121 21.5569 8.76369 20.4748C9.1634 19.2447 10.2302 18.1779 12.3639 16.0442L16.5442 11.8639L16.5442 11.8638C18.6778 9.73022 19.7447 8.6634 20.9748 8.2637C22.0569 7.9121 23.2225 7.9121 24.3046 8.2637C25.5348 8.6634 26.6016 9.73022 28.7353 11.8639L30.5201 13.6487C31.2131 14.3417 31.5596 14.6882 31.9592 14.8181C32.3107 14.9323 32.6893 14.9323 33.0408 14.8181C33.4404 14.6882 33.7869 14.3417 34.4799 13.6487L36.2647 11.8639L36.2648 11.8638C38.3984 9.73021 39.4652 8.6634 40.6954 8.26369C41.7775 7.9121 42.9431 7.9121 44.0252 8.26369C45.2553 8.6634 46.3222 9.73022 48.4558 11.8639L52.6362 16.0442C54.7698 18.1779 55.8366 19.2447 56.2363 20.4748C56.5879 21.5569 56.5879 22.7226 56.2363 23.8046C55.8366 25.0348 54.7698 26.1016 52.6362 28.2353L50.8513 30.0201C50.1583 30.7131 49.8118 31.0597 49.6819 31.4592C49.5677 31.8107 49.5677 32.1893 49.6819 32.5408C49.8118 32.9404 50.1583 33.2869 50.8513 33.9799L52.6361 35.7647C54.7698 37.8984 55.8366 38.9652 56.2363 40.1954C56.5879 41.2774 56.5879 42.4431 56.2363 43.5252C55.8366 44.7553 54.7698 45.8222 52.6361 47.9558L48.4558 52.1362C46.3221 54.2698 45.2553 55.3366 44.0251 55.7363C42.943 56.0879 41.7774 56.0879 40.6953 55.7363C39.4652 55.3366 38.3984 54.2698 36.2647 52.1362L36.2647 52.1362L34.4799 50.3513ZM44.4854 36.386C45.1784 35.693 45.5249 35.3465 45.9245 35.2167C46.276 35.1025 46.6546 35.1025 47.0061 35.2167C47.4056 35.3465 47.7521 35.693 48.4452 36.386L50.23 38.1709C51.3365 39.2774 52.0198 39.9644 52.4923 40.521C52.9336 41.0408 52.9929 41.2246 52.9998 41.2461L53 41.2469C53.1296 41.6455 53.1296 42.075 53 42.4736L52.9998 42.4744C52.9929 42.4959 52.9336 42.6797 52.4923 43.1995C52.0198 43.7561 51.3365 44.4431 50.23 45.5497L46.0496 49.73C44.9431 50.8365 44.2561 51.5199 43.6994 51.9924C43.1797 52.4336 42.9959 52.4929 42.9744 52.4998L42.9736 52.5001C42.575 52.6296 42.1455 52.6296 41.7469 52.5001L41.7461 52.4998C41.7246 52.4929 41.5408 52.4336 41.021 51.9924C40.4644 51.5199 39.7774 50.8365 38.6708 49.73L36.886 47.9452C36.193 47.2522 35.8465 46.9057 35.7167 46.5061C35.6024 46.1546 35.6024 45.776 35.7167 45.4245C35.8465 45.0249 36.193 44.6784 36.886 43.9854L44.4854 36.386ZM42.0793 30.0201C42.7723 30.7131 43.1188 31.0597 43.2486 31.4592C43.3628 31.8107 43.3628 32.1893 43.2486 32.5408C43.1188 32.9404 42.7723 33.2869 42.0793 33.9799L34.4799 41.5793C33.7869 42.2723 33.4404 42.6188 33.0408 42.7487C32.6893 42.8629 32.3107 42.8629 31.9592 42.7487C31.5596 42.6188 31.2131 42.2723 30.5201 41.5793L22.9207 33.9799C22.2277 33.2869 21.8812 32.9404 21.7514 32.5408C21.6372 32.1893 21.6372 31.8107 21.7514 31.4592C21.8812 31.0597 22.2277 30.7131 22.9207 30.0201L30.5201 22.4208C31.2131 21.7277 31.5596 21.3812 31.9592 21.2514C32.3107 21.1372 32.6893 21.1372 33.0408 21.2514C33.4404 21.3812 33.7869 21.7277 34.4799 22.4208L42.0793 30.0201ZM44.4854 27.614C45.1784 28.307 45.5249 28.6535 45.9245 28.7834C46.276 28.8976 46.6546 28.8976 47.0061 28.7834C47.4056 28.6535 47.7522 28.307 48.4452 27.614L50.23 25.8291C51.3365 24.7226 52.0199 24.0356 52.4924 23.479C52.9336 22.9592 52.9929 22.7754 52.9998 22.7539L53.0001 22.7531C53.1296 22.3545 53.1296 21.925 53.0001 21.5264L52.9998 21.5256C52.9929 21.5041 52.9336 21.3203 52.4924 20.8005C52.0199 20.2439 51.3365 19.5569 50.23 18.4503L46.0497 14.27C44.9431 13.1635 44.2561 12.4802 43.6995 12.0076C43.1797 11.5664 42.9959 11.5071 42.9744 11.5002L42.9737 11.4999C42.575 11.3704 42.1455 11.3704 41.7469 11.4999L41.7462 11.5002C41.7246 11.5071 41.5408 11.5664 41.0211 12.0076C40.4644 12.4802 39.7774 13.1635 38.6709 14.27L36.886 16.0548C36.193 16.7479 35.8465 17.0944 35.7167 17.4939C35.6024 17.8454 35.6024 18.224 35.7167 18.5755C35.8465 18.9751 36.193 19.3216 36.886 20.0146L44.4854 27.614ZM28.114 20.0146C28.807 19.3216 29.1535 18.9751 29.2833 18.5755C29.3976 18.224 29.3976 17.8454 29.2833 17.4939C29.1535 17.0944 28.807 16.7479 28.114 16.0548L26.3291 14.27C25.2226 13.1635 24.5356 12.4802 23.9789 12.0076C23.4592 11.5664 23.2754 11.5071 23.2538 11.5002L23.2531 11.4999C22.8545 11.3704 22.425 11.3704 22.0264 11.4999L22.0256 11.5002C22.0041 11.5071 21.8203 11.5664 21.3005 12.0076C20.7439 12.4802 20.0569 13.1635 18.9503 14.27L14.77 18.4503C13.6635 19.5569 12.9801 20.2439 12.5076 20.8005C12.0664 21.3203 12.0071 21.5041 12.0002 21.5256L11.9999 21.5264C11.8704 21.925 11.8704 22.3545 11.9999 22.7531L12.0002 22.7539C12.0071 22.7754 12.0664 22.9592 12.5076 23.479C12.9801 24.0356 13.6635 24.7226 14.77 25.8291L16.5548 27.614C17.2479 28.307 17.5944 28.6535 17.9939 28.7834C18.3454 28.8976 18.724 28.8976 19.0755 28.7834C19.4751 28.6535 19.8216 28.307 20.5146 27.614L28.114 20.0146Z" fill="url(#paint0_linear_312_1651)"/>
<defs>
<linearGradient id="paint0_linear_312_1651" x1="32.5" y1="8" x2="32.5" y2="56" gradientUnits="userSpaceOnUse">
<stop stop-color="#DADADA"/>
<stop offset="1" stop-color="#8D8D8D"/>
</linearGradient>
</defs>
</svg>
